<svg xmlns="http://www.w3.org/2000/svg" width="102" height="24" viewBox="0 0 102 24" fill="none">
<g clip-path="url(#clip0_112_505)">
<path d="M3.45 19.1998C5.4 21.1498 7.95 22.1248 10.5 22.1248C13.05 22.1248 15.6 21.1498 17.55 19.1998L26.7 10.0498L24.45 7.7998L15.3 16.8748C12.675 19.4998 8.4 19.4998 5.7 16.8748L5.55 16.7248C2.925 14.0998 2.925 9.8248 5.55 7.1248L5.7 6.9748C8.325 4.3498 12.6 4.3498 15.3 6.9748L16.05 7.7998L18.3 5.5498L17.55 4.7248C13.65 0.824805 7.275 0.824805 3.375 4.7248L3.3 4.9498C-0.6 8.8498 -0.6 15.2248 3.3 19.1248L3.45 19.1998Z" fill="#FF6A4C"/>
<path d="M35.1001 4.8C33.1501 2.85 30.6001 1.875 28.0501 1.875C25.5001 1.875 22.9501 2.85 21.0001 4.8L11.8501 13.95L14.1001 16.2L23.2501 7.125C25.8751 4.5 30.1501 4.5 32.8501 7.125L33.0001 7.275C35.6251 9.9 35.6251 14.175 33.0001 16.875L32.8501 17.025C30.2251 19.65 25.9501 19.65 23.2501 17.025L22.5001 16.275L20.2501 18.525L21.0001 19.275C24.9001 23.175 31.2751 23.175 35.1751 19.275L35.3251 19.125C39.2251 15.225 39.2251 8.85 35.3251 4.95C35.2501 4.95 35.1001 4.8 35.1001 4.8Z" fill="#FF6A4C"/>
<path d="M82.2002 9.5249L76.9502 22.0499H75.0752L76.5002 18.5249L72.8252 9.5249H74.7002L77.4752 16.3499L80.3252 9.5249H82.2002Z" fill="black"/>
<path d="M43.0498 11.9999C43.0498 8.0999 46.1248 5.0249 50.0248 5.0249C52.1248 5.0249 53.9248 5.9249 55.1248 7.3499L53.8498 8.4749C52.9498 7.4249 51.5248 6.6749 50.0248 6.6749C47.1748 6.6749 44.9248 9.0749 44.9248 11.9999C44.9248 14.9249 47.1748 17.3249 50.0248 17.3249C51.5248 17.3249 52.9498 16.6499 53.8498 15.5249L55.1248 16.6499C53.9248 18.0749 52.1248 18.9749 50.0248 18.9749C46.1248 18.9749 43.0498 15.8999 43.0498 11.9999Z" fill="black"/>
<path d="M62.2502 9.6748L61.9502 11.3248C61.4252 11.0998 60.9752 11.0248 60.6002 11.0248C58.7252 11.0248 58.0502 12.9748 58.0502 15.4498V18.8248H56.3252V9.5248H58.0502V11.6248C58.5002 9.9748 59.4002 9.2998 60.6752 9.2998C61.3502 9.3748 62.0252 9.5248 62.2502 9.6748Z" fill="black"/>
<path d="M71.925 9.5251V18.7501H70.2V17.2501C69.6 18.3001 68.25 18.9001 66.9 18.9001C64.35 18.9001 62.25 16.9501 62.25 14.0251C62.25 11.1001 64.35 9.2251 66.9 9.2251C68.325 9.2251 69.6 9.7501 70.2 10.8751V9.4501L71.925 9.5251ZM70.2 14.1751C70.2 12.1501 68.55 11.0251 67.05 11.0251C65.4 11.0251 64.05 12.3001 64.05 14.1751C64.05 16.0501 65.4 17.4001 67.05 17.4001C68.7 17.4001 70.2 16.1251 70.2 14.1751Z" fill="black"/>
<path d="M82.0498 14.175C82.0498 11.25 84.2248 9.375 86.9248 9.375C89.6248 9.375 91.7998 11.25 91.7998 14.175C91.7998 17.1 89.5498 19.05 86.9248 19.05C84.2998 19.05 82.0498 17.1 82.0498 14.175ZM89.9998 14.175C89.9998 12.3 88.5748 11.025 86.8498 11.025C85.1998 11.025 83.7748 12.3 83.7748 14.175C83.7748 16.125 85.1998 17.4 86.8498 17.4C88.5748 17.4 89.9998 16.05 89.9998 14.175Z" fill="black"/>
<path d="M101.25 13.425V18.75H99.5252V13.5C99.5252 11.925 98.5502 11.025 97.2752 11.025C96.0002 11.025 94.4252 11.775 94.4252 13.8V18.825H92.7002V9.525H94.4252V10.95C94.9502 9.825 96.4502 9.375 97.5002 9.375C99.8252 9.375 101.25 10.875 101.25 13.425Z" fill="black"/>
</g>
<defs>
<clipPath id="clip0_112_505">
<rect width="101.25" height="24" fill="white" transform="translate(0.375)"/>
</clipPath>
</defs>
</svg>